<svg width="14" height="15" viewBox="0 0 14 15" fill="none" xmlns="http://www.w3.org/2000/svg">
    <path d="M12.5449 2.9375C12.9004 2.9375 13.2012 3.23828 13.2012 3.59375C13.2012 3.97656 12.9004 4.25 12.5449 4.25H12.2168L11.5605 13.1367C11.4785 14.0664 10.7402 14.75 9.81055 14.75H4.31445C3.38477 14.75 2.64648 14.0664 2.56445 13.1367L1.9082 4.25H1.60742C1.22461 4.25 0.951172 3.97656 0.951172 3.59375C0.951172 3.23828 1.22461 2.9375 1.60742 2.9375H3.49414L4.50586 1.43359C4.7793 1.02344 5.27148 0.75 5.79102 0.75H8.33398C8.85352 0.75 9.3457 1.02344 9.61914 1.43359L10.6309 2.9375H12.5449ZM5.79102 2.0625C5.70898 2.0625 5.62695 2.11719 5.59961 2.17188L5.08008 2.9375H9.04492L8.52539 2.17188C8.49805 2.11719 8.41602 2.0625 8.33398 2.0625H5.79102ZM10.9043 4.25H3.2207L3.87695 13.0547C3.9043 13.2734 4.0957 13.4375 4.31445 13.4375H9.81055C10.0293 13.4375 10.2207 13.2734 10.248 13.0547L10.9043 4.25Z" fill="#993296"/>
</svg>
